# xmcd
#
# Track frame offsets:
#	150
#	13263
#	27891
#	45720
#	60833
#	79292
#	94094
#	109579
#	126791
#	150311
#	167492
#	184711
#	202334
#	217812
#	234374
#	249010
#	266386
#	282164
#	302337
#
# Disc length: 4153 seconds
#
# Revision: 0
# Processed by: cddbd v1.5.2PL0 Copyright (c) Steve Scherf et al.
# Submitted via: dBpowerAMP V4.0
#
DISCID=e8103713
DTITLE=Freek'D Out - Slit A F-ckin Throat Music Compilation 
DYEAR=2003
DGENRE=Rap
TTITLE0=Wicket Shit Intro
TTITLE1=Only Me
TTITLE2=You Heard Wrong
TTITLE3=Shoot Dem Up
TTITLE4=Hold Me Down
TTITLE5=Family
TTITLE6=I Can't Help It
TTITLE7=I Wanna Fit In
TTITLE8=On These Hard Days
TTITLE9=Different Minds
TTITLE10=I'm Slippin'
TTITLE11=Forgive Me
TTITLE12=To Be Me
TTITLE13=A Night At The Graveyard
TTITLE14=Her Gift To Me
TTITLE15=What Makes Me So Different
TTITLE16=Puff Puff Pass
TTITLE17=You Got Me Man?
TTITLE18=Lil Johnny Skit
EXTD=This compilation album is compiled of tracks from the "Wicket Shit" era leading up to the "Different Minds" era of my career. This CD also includes 4 bonus tracks and one skit to kick it with!
EXTT0=
EXTT1=
EXTT2=
EXTT3=
EXTT4=
EXTT5=
EXTT6=
EXTT7=
EXTT8=
EXTT9=
EXTT10=
EXTT11=
EXTT12=
EXTT13=
EXTT14=
EXTT15=
EXTT16=
EXTT17=
EXTT18=
PLAYORDER=
